<mxfile host="app.diagrams.net" agent="Mozilla/5.0 (X11; Ubuntu; Linux x86_64; rv:134.0) Gecko/20100101 Firefox/134.0" version="26.0.6">
  <diagram name="Page-1" id="d8KQhJDdOZyCVvzWhxLm">
    <mxGraphModel dx="959" dy="699" grid="1" gridSize="10" guides="1" tooltips="1" connect="1" arrows="1" fold="1" page="1" pageScale="1" pageWidth="850" pageHeight="1100" math="0" shadow="0">
      <root>
        <mxCell id="0" />
        <mxCell id="1" parent="0" />
        <mxCell id="FH4Ne2rkt0V9FG8rTHlx-29" value="" style="endArrow=classic;html=1;rounded=0;exitX=1;exitY=0.5;exitDx=0;exitDy=0;entryX=0.5;entryY=1;entryDx=0;entryDy=0;dashed=1;" edge="1" parent="1" source="FH4Ne2rkt0V9FG8rTHlx-8" target="FH4Ne2rkt0V9FG8rTHlx-1">
          <mxGeometry relative="1" as="geometry">
            <mxPoint x="440" y="400" as="sourcePoint" />
            <mxPoint x="540" y="400" as="targetPoint" />
          </mxGeometry>
        </mxCell>
        <mxCell id="FH4Ne2rkt0V9FG8rTHlx-30" value="rst" style="edgeLabel;resizable=0;html=1;;align=center;verticalAlign=middle;fontColor=#CC0000;" connectable="0" vertex="1" parent="FH4Ne2rkt0V9FG8rTHlx-29">
          <mxGeometry relative="1" as="geometry" />
        </mxCell>
        <mxCell id="FH4Ne2rkt0V9FG8rTHlx-33" value="" style="endArrow=none;html=1;rounded=0;exitX=0.5;exitY=0;exitDx=0;exitDy=0;dashed=1;endFill=0;" edge="1" parent="1" source="FH4Ne2rkt0V9FG8rTHlx-6">
          <mxGeometry relative="1" as="geometry">
            <mxPoint x="260" y="360" as="sourcePoint" />
            <mxPoint x="450" y="210" as="targetPoint" />
          </mxGeometry>
        </mxCell>
        <mxCell id="FH4Ne2rkt0V9FG8rTHlx-34" value="rst" style="edgeLabel;resizable=0;html=1;;align=center;verticalAlign=middle;fontColor=#CC0000;" connectable="0" vertex="1" parent="FH4Ne2rkt0V9FG8rTHlx-33">
          <mxGeometry relative="1" as="geometry" />
        </mxCell>
        <mxCell id="FH4Ne2rkt0V9FG8rTHlx-35" value="" style="endArrow=none;html=1;rounded=0;exitX=0.5;exitY=0;exitDx=0;exitDy=0;dashed=1;endFill=0;" edge="1" parent="1" source="FH4Ne2rkt0V9FG8rTHlx-4">
          <mxGeometry relative="1" as="geometry">
            <mxPoint x="270" y="370" as="sourcePoint" />
            <mxPoint x="450" y="210" as="targetPoint" />
          </mxGeometry>
        </mxCell>
        <mxCell id="FH4Ne2rkt0V9FG8rTHlx-36" value="rst" style="edgeLabel;resizable=0;html=1;;align=center;verticalAlign=middle;fontColor=#CC0000;" connectable="0" vertex="1" parent="FH4Ne2rkt0V9FG8rTHlx-35">
          <mxGeometry relative="1" as="geometry" />
        </mxCell>
        <mxCell id="FH4Ne2rkt0V9FG8rTHlx-37" value="" style="endArrow=classic;html=1;rounded=0;exitX=-0.008;exitY=0.429;exitDx=0;exitDy=0;entryX=0.5;entryY=1;entryDx=0;entryDy=0;dashed=1;exitPerimeter=0;" edge="1" parent="1" source="FH4Ne2rkt0V9FG8rTHlx-2" target="FH4Ne2rkt0V9FG8rTHlx-1">
          <mxGeometry relative="1" as="geometry">
            <mxPoint x="280" y="380" as="sourcePoint" />
            <mxPoint x="480" y="240" as="targetPoint" />
          </mxGeometry>
        </mxCell>
        <mxCell id="FH4Ne2rkt0V9FG8rTHlx-38" value="rst" style="edgeLabel;resizable=0;html=1;;align=center;verticalAlign=middle;fontColor=#CC0000;" connectable="0" vertex="1" parent="FH4Ne2rkt0V9FG8rTHlx-37">
          <mxGeometry relative="1" as="geometry" />
        </mxCell>
        <mxCell id="FH4Ne2rkt0V9FG8rTHlx-1" value="&lt;b&gt;IF&lt;/b&gt;" style="ellipse;whiteSpace=wrap;html=1;aspect=fixed;fillColor=#d5e8d4;strokeColor=#82b366;" vertex="1" parent="1">
          <mxGeometry x="410" y="130" width="80" height="80" as="geometry" />
        </mxCell>
        <mxCell id="FH4Ne2rkt0V9FG8rTHlx-2" value="&lt;b&gt;ID&lt;/b&gt;" style="ellipse;whiteSpace=wrap;html=1;aspect=fixed;fillColor=#d5e8d4;strokeColor=#82b366;" vertex="1" parent="1">
          <mxGeometry x="650" y="310" width="80" height="80" as="geometry" />
        </mxCell>
        <mxCell id="FH4Ne2rkt0V9FG8rTHlx-4" value="&lt;b&gt;EX&lt;/b&gt;" style="ellipse;whiteSpace=wrap;html=1;aspect=fixed;fillColor=#d5e8d4;strokeColor=#82b366;" vertex="1" parent="1">
          <mxGeometry x="530" y="540" width="80" height="80" as="geometry" />
        </mxCell>
        <mxCell id="FH4Ne2rkt0V9FG8rTHlx-6" value="&lt;b&gt;MEM&lt;/b&gt;" style="ellipse;whiteSpace=wrap;html=1;aspect=fixed;fillColor=#d5e8d4;strokeColor=#82b366;" vertex="1" parent="1">
          <mxGeometry x="300" y="540" width="80" height="80" as="geometry" />
        </mxCell>
        <mxCell id="FH4Ne2rkt0V9FG8rTHlx-8" value="&lt;b&gt;WB&lt;/b&gt;" style="ellipse;whiteSpace=wrap;html=1;aspect=fixed;fillColor=#d5e8d4;strokeColor=#82b366;" vertex="1" parent="1">
          <mxGeometry x="170" y="310" width="80" height="80" as="geometry" />
        </mxCell>
        <mxCell id="FH4Ne2rkt0V9FG8rTHlx-10" value="" style="endArrow=classic;html=1;rounded=0;exitX=0.5;exitY=0;exitDx=0;exitDy=0;entryX=0;entryY=0.5;entryDx=0;entryDy=0;curved=1;" edge="1" parent="1" source="FH4Ne2rkt0V9FG8rTHlx-8" target="FH4Ne2rkt0V9FG8rTHlx-1">
          <mxGeometry relative="1" as="geometry">
            <mxPoint x="370" y="380" as="sourcePoint" />
            <mxPoint x="470" y="380" as="targetPoint" />
            <Array as="points">
              <mxPoint x="270" y="170" />
            </Array>
          </mxGeometry>
        </mxCell>
        <mxCell id="FH4Ne2rkt0V9FG8rTHlx-11" value="&lt;div&gt;clk&lt;/div&gt;" style="edgeLabel;resizable=0;html=1;;align=center;verticalAlign=middle;" connectable="0" vertex="1" parent="FH4Ne2rkt0V9FG8rTHlx-10">
          <mxGeometry relative="1" as="geometry" />
        </mxCell>
        <mxCell id="FH4Ne2rkt0V9FG8rTHlx-12" value="" style="endArrow=classic;html=1;rounded=0;exitX=1;exitY=0.5;exitDx=0;exitDy=0;entryX=0.5;entryY=0;entryDx=0;entryDy=0;curved=1;" edge="1" parent="1" source="FH4Ne2rkt0V9FG8rTHlx-1" target="FH4Ne2rkt0V9FG8rTHlx-2">
          <mxGeometry relative="1" as="geometry">
            <mxPoint x="370" y="380" as="sourcePoint" />
            <mxPoint x="470" y="380" as="targetPoint" />
            <Array as="points">
              <mxPoint x="650" y="200" />
            </Array>
          </mxGeometry>
        </mxCell>
        <mxCell id="FH4Ne2rkt0V9FG8rTHlx-13" value="clk" style="edgeLabel;resizable=0;html=1;;align=center;verticalAlign=middle;" connectable="0" vertex="1" parent="FH4Ne2rkt0V9FG8rTHlx-12">
          <mxGeometry relative="1" as="geometry" />
        </mxCell>
        <mxCell id="FH4Ne2rkt0V9FG8rTHlx-15" value="" style="endArrow=classic;html=1;rounded=0;exitX=0.5;exitY=1;exitDx=0;exitDy=0;entryX=1;entryY=0.5;entryDx=0;entryDy=0;curved=1;" edge="1" parent="1" source="FH4Ne2rkt0V9FG8rTHlx-2" target="FH4Ne2rkt0V9FG8rTHlx-4">
          <mxGeometry relative="1" as="geometry">
            <mxPoint x="370" y="380" as="sourcePoint" />
            <mxPoint x="470" y="380" as="targetPoint" />
            <Array as="points">
              <mxPoint x="690" y="530" />
            </Array>
          </mxGeometry>
        </mxCell>
        <mxCell id="FH4Ne2rkt0V9FG8rTHlx-16" value="clk" style="edgeLabel;resizable=0;html=1;;align=center;verticalAlign=middle;" connectable="0" vertex="1" parent="FH4Ne2rkt0V9FG8rTHlx-15">
          <mxGeometry relative="1" as="geometry" />
        </mxCell>
        <mxCell id="FH4Ne2rkt0V9FG8rTHlx-17" value="" style="endArrow=classic;html=1;rounded=0;exitX=0;exitY=0.5;exitDx=0;exitDy=0;entryX=1;entryY=0.5;entryDx=0;entryDy=0;" edge="1" parent="1" source="FH4Ne2rkt0V9FG8rTHlx-4" target="FH4Ne2rkt0V9FG8rTHlx-6">
          <mxGeometry relative="1" as="geometry">
            <mxPoint x="370" y="380" as="sourcePoint" />
            <mxPoint x="470" y="380" as="targetPoint" />
          </mxGeometry>
        </mxCell>
        <mxCell id="FH4Ne2rkt0V9FG8rTHlx-18" value="clk" style="edgeLabel;resizable=0;html=1;;align=center;verticalAlign=middle;" connectable="0" vertex="1" parent="FH4Ne2rkt0V9FG8rTHlx-17">
          <mxGeometry relative="1" as="geometry" />
        </mxCell>
        <mxCell id="FH4Ne2rkt0V9FG8rTHlx-21" value="" style="endArrow=classic;html=1;rounded=0;exitX=0;exitY=0.5;exitDx=0;exitDy=0;entryX=0.5;entryY=1;entryDx=0;entryDy=0;curved=1;" edge="1" parent="1" source="FH4Ne2rkt0V9FG8rTHlx-6" target="FH4Ne2rkt0V9FG8rTHlx-8">
          <mxGeometry relative="1" as="geometry">
            <mxPoint x="370" y="380" as="sourcePoint" />
            <mxPoint x="470" y="380" as="targetPoint" />
            <Array as="points">
              <mxPoint x="200" y="540" />
            </Array>
          </mxGeometry>
        </mxCell>
        <mxCell id="FH4Ne2rkt0V9FG8rTHlx-22" value="clk" style="edgeLabel;resizable=0;html=1;;align=center;verticalAlign=middle;" connectable="0" vertex="1" parent="FH4Ne2rkt0V9FG8rTHlx-21">
          <mxGeometry relative="1" as="geometry" />
        </mxCell>
        <mxCell id="FH4Ne2rkt0V9FG8rTHlx-24" value="000" style="rounded=1;whiteSpace=wrap;html=1;fillColor=#fff2cc;strokeColor=#d6b656;fontStyle=1" vertex="1" parent="1">
          <mxGeometry x="430" y="220" width="40" height="20" as="geometry" />
        </mxCell>
        <mxCell id="FH4Ne2rkt0V9FG8rTHlx-25" value="001" style="rounded=1;whiteSpace=wrap;html=1;fillColor=#fff2cc;strokeColor=#d6b656;fontStyle=1" vertex="1" parent="1">
          <mxGeometry x="600" y="340" width="40" height="20" as="geometry" />
        </mxCell>
        <mxCell id="FH4Ne2rkt0V9FG8rTHlx-26" value="010" style="rounded=1;whiteSpace=wrap;html=1;fillColor=#fff2cc;strokeColor=#d6b656;fontStyle=1" vertex="1" parent="1">
          <mxGeometry x="550" y="510" width="40" height="20" as="geometry" />
        </mxCell>
        <mxCell id="FH4Ne2rkt0V9FG8rTHlx-27" value="011" style="rounded=1;whiteSpace=wrap;html=1;fillColor=#fff2cc;strokeColor=#d6b656;fontStyle=1" vertex="1" parent="1">
          <mxGeometry x="320" y="510" width="40" height="20" as="geometry" />
        </mxCell>
        <mxCell id="FH4Ne2rkt0V9FG8rTHlx-28" value="100" style="rounded=1;whiteSpace=wrap;html=1;fillColor=#fff2cc;strokeColor=#d6b656;fontStyle=1" vertex="1" parent="1">
          <mxGeometry x="260" y="340" width="40" height="20" as="geometry" />
        </mxCell>
      </root>
    </mxGraphModel>
  </diagram>
</mxfile>
